# xmcd
#
# Track frame offsets:
#	150
#	14942
#	28761
#	43446
#	64287
#
# Disc length: 1042 seconds
#
# Revision: 0
# Processed by: cddbd v1.5.2PL0 Copyright (c) Steve Scherf et al.
# Submitted via: EasyCDDAExtractor 10.2.0.1
#
DISCID=4c041005
DTITLE=Various Artist - Cedarhill Oct. 1997
DYEAR=1997
DGENRE=Gospel
TTITLE0=Crosstar - Prepare The Dwelling Place
TTITLE1=Gatlin Fisher - Able Is He
TTITLE2=Gerald Sweatman Family - I Am God's Child
TTITLE3=The Phillips Family - Paint My Mind
TTITLE4=Forgiven - His Hand In Mine
EXTD=
EXTT0=
EXTT1=
EXTT2=
EXTT3=
EXTT4=
PLAYORDER=
